<svg xmlns="http://www.w3.org/2000/svg" width="51.44" height="50.521" viewBox="0 0 51.44 50.521"><defs><style>.a{fill:#2b83fc;}</style></defs><path class="a" d="M173.511,240.767v4.593h1.837v-4.593a.919.919,0,0,1,.919-.919h4.593v-1.837h-4.593a.919.919,0,0,1-.919-.919V232.5h-1.837v4.593a.919.919,0,0,1-.919.919H168v1.837h4.593A.919.919,0,0,1,173.511,240.767Zm0,0" transform="translate(-148.71 -205.861)"/><path class="a" d="M131.941,184.5a11.941,11.941,0,1,0,11.941,11.941A11.941,11.941,0,0,0,131.941,184.5Zm8.267,13.779a.919.919,0,0,1-.919.919H134.7v4.593a.919.919,0,0,1-.919.919H130.1a.919.919,0,0,1-.919-.919V199.2h-4.593a.919.919,0,0,1-.919-.919V194.6a.919.919,0,0,1,.919-.919h4.593v-4.593a.919.919,0,0,1,.919-.919h3.674a.919.919,0,0,1,.919.919v4.593h4.593a.919.919,0,0,1,.919.919Zm0,0" transform="translate(-106.221 -163.373)"/><path class="a" d="M37.661,88.5H13.779A13.8,13.8,0,0,0,0,102.279v26.639H51.44V102.279A13.8,13.8,0,0,0,37.661,88.5ZM25.72,125.243A13.779,13.779,0,1,1,39.5,111.464,13.779,13.779,0,0,1,25.72,125.243Zm0,0" transform="translate(0 -78.396)"/><path class="a" d="M162.371,5.093V8.767h-1.837V5.093a2.764,2.764,0,0,0-2.756-2.756h-9.186a2.764,2.764,0,0,0-2.756,2.756V8.767H144V5.093A4.593,4.593,0,0,1,148.593.5h9.186A4.593,4.593,0,0,1,162.371,5.093Zm0,0" transform="translate(-127.466 -0.5)"/></svg>